<?xml version="1.0" standalone="no"?>
<!DOCTYPE svg PUBLIC "-//W3C//DTD SVG 1.1//EN" "http://www.w3.org/Graphics/SVG/1.1/DTD/svg11.dtd">
<svg xmlns="http://www.w3.org/2000/svg" id="Camada_1" data-name="Camada 1" viewBox="0 0 1080 339.84" width="1080" height="339.8399963378906">
  <defs>
    <style>
      .cls-1, .cls-2 {
        fill: #ecb034;
      }

      .cls-2 {
        opacity: .98;
        stroke: #000;
        stroke-miterlimit: 10;
        stroke-width: .25px;
      }
    </style>
  </defs>
  <path class="cls-1" d="m927.09,173.13c-6.81,2.67-15.75.33-19.8-5.36-4.72-6.65-9.3-13.4-13.92-20.12-1.28-1.87-6.97-3.17-8.76-1.97-.83.55-.69,1.42-.69,2.21,0,5.48-.15,10.97.1,16.44.16,3.55.8,7.17,5.53,7.55.7.06,1.06.35,1.09,1.05.04,1.07-.75,1-1.43,1-6.18.01-12.36.01-18.54,0-.65,0-1.51.14-1.56-.88-.04-.95.67-1.05,1.42-1.1,3.15-.21,4.32-2.41,4.9-5.07.3-1.36.48-2.76.48-4.15.04-12.48.04-24.95,0-37.43,0-1.61-.24-3.26-.61-4.83-.56-2.43-1.9-4.25-4.59-4.63-.8-.11-1.76.02-1.59-1.24.13-.98.96-.87,1.62-.85,9.19.28,18.45-.87,27.58.73,8.55,1.5,14.24,7.3,14.81,14.52.65,8.23-2.81,12.67-12.31,15.7-.05,1.52,1.16,2.41,1.91,3.47,4.49,6.39,9.18,12.63,13.53,19.11,2.21,3.29,4.78,5.29,8.87,5.02.69-.05,1.71-.39,1.96.83Zm-43.3-43.93v8.39c0,5.69,0,5.66,5.7,5.69,3.88.02,7.76.09,10.8-2.9,4.44-4.36,4.5-9.84,3.33-15.3-1.11-5.15-4.86-8.06-9.89-9.25-2.5-.59-5.07-.58-7.64-.64-1.91-.05-2.37.74-2.33,2.48.09,3.84.03,7.69.03,11.53Z"/>
  <path class="cls-1" d="m640.12,126.29c-.89,1.2-.46,2.5-.45,3.71.05,10.72.12,21.45.27,32.17.06,4.34-.14,8.99,5.98,9.66.55.06.72.51.7,1.02-.02.73-.47,1-1.13,1-4.55,0-9.09,0-13.64,0-.66,0-1.11-.29-1.12-1.02-.01-.74.46-.96,1.12-1.01,4.46-.4,5.41-3.73,5.46-7.21.18-13.64.17-27.28.16-40.91,0-2.82-4.82-6.95-8.84-7.89-.88-.21-2.5.46-2.36-1.22.13-1.58,1.65-.72,2.55-.89,9.14-1.75,15.1,1.66,20.13,9.76,6.98,11.25,15.47,21.57,23.32,32.28.73,1,1.49,1.98,2.21,2.92,1.3-.63.93-1.56.93-2.29,0-10.26-.03-20.52-.09-30.77,0-1.28-.01-2.59-.3-3.83-.67-2.89-1.49-5.77-5.23-6.03-.84-.06-1.32-.4-1.2-1.29.11-.78.73-.79,1.31-.79,4.43,0,8.86,0,13.29,0,.58,0,1.22.03,1.32.8.09.68-.27,1.11-.95,1.19-5.47.62-5.68,4.87-5.76,8.84-.3,13.52-.41,27.04-.58,40.56-.03,1.98.05,3.97-.07,5.94-.06.93.65,2.33-.77,2.69-1.27.32-1.69-1.03-2.28-1.83-10.48-14.28-20.93-28.57-31.42-42.84-.71-.97-1.15-2.28-2.57-2.7Z"/>
  <path class="cls-1" d="m581.99,173.93c-6.53,0-13.06.02-19.58-.03-.77,0-2.1.55-2.06-1.02.03-1.24,1.14-.91,1.88-.95,3.22-.19,4.64-2.43,5.57-5.05.7-1.98.86-4.09.85-6.2-.02-11.19.02-22.38-.04-33.57,0-1.73-.19-3.5-.59-5.19-.77-3.28-2.46-5.79-6.22-6.12-.66-.06-1.48.12-1.51-.94-.04-1.27.92-1.09,1.7-1.12.7-.03,1.4,0,2.1,0,11.19,0,22.38.08,33.57-.06,2.77-.04,4.35.34,4.3,3.59-.04,2.42.57,4.85.84,7.28.07.62.45,1.49-.59,1.66-.87.15-1.11-.54-1.37-1.24-2.63-7.3-8.36-9.39-15.48-9.36-8.76.03-8.76-.03-8.76,8.62,0,4.78.08,9.56-.04,14.34-.05,1.99.62,2.76,2.59,2.57,1.16-.11,2.33-.02,3.49-.06,6.31-.26,9.9-2.92,11.9-8.85.26-.76.2-1.72,1.35-1.66.79.05.78.73.78,1.3,0,6.88,0,13.75,0,20.63,0,.58,0,1.24-.77,1.31-.65.06-.95-.37-1.23-.97-3.89-8.13-7.39-10.22-15.85-9.77-1.6.09-2.3.46-2.23,2.18.19,5.35-.29,10.72.38,16.07.71,5.73,3.37,8.76,8.96,10.19,6.74,1.73,13.91-1.39,17.21-7.44.35-.65.39-1.84,1.5-1.6,1.25.28.54,1.34.48,2.04q-.8,9.44-10.19,9.44c-4.31,0-8.63,0-12.94,0Z"/>
  <path class="cls-2" d="m445.09,113.68c3.85,11.18,7.39,21.45,10.92,31.72,1.42,4.11,2.68,8.28,4.29,12.33,2,5.04,3.64,10.48,10.66,11.62.68.11.87.63.89,1.22.02.86-.53,1.11-1.33,1.11-7.81,0-15.63,0-23.44,0-.8,0-1.32-.31-1.29-1.15.03-.82.6-.98,1.35-1.18,5.36-1.4,6.22-2.62,5.58-7.75-.4-3.25-1.76-6.26-2.7-9.37-.3-1.01-.87-1.36-1.97-1.35-5.6.04-11.2.03-16.79,0-1.03,0-1.8.15-2.13,1.19-1.11,3.52-2.71,6.93-3.03,10.63-.35,4.01,1.09,5.64,5.66,6.53.92.18,1.54.34,1.53,1.34,0,1.16-.88,1.08-1.69,1.08-6.65,0-13.29,0-19.94,0-.68,0-1.46.03-1.5-.92-.04-.9.35-1.41,1.39-1.46,8.29-.4,11.34-6,13.58-12.12,4.46-12.17,8.71-24.4,12.98-36.62.56-1.59.97-2.91,3.2-3.16,1.6-.18,2.83-1.35,3.79-3.68Zm-5.42,7.71c-3.06,8.92-5.89,17.21-8.74,25.5-.51,1.48-.22,2.16,1.67,2.12,4.65-.09,9.31-.08,13.97,0,1.7.03,2.34-.4,1.79-2.03-2.84-8.31-5.65-16.63-8.68-25.58Z"/>
  <path class="cls-1" d="m819.69,111.89c2.53,7.95,4.92,15.44,7.31,22.94,2.55,7.98,5.12,15.96,7.66,23.94.75,2.34,1.57,4.65,2.91,6.71,1.78,2.75,3.57,5.56,7.34,5.84,1,.08,1.46.62,1.37,1.62-.08.98-.82.99-1.52,1-7.7,0-15.39,0-23.09,0-.72,0-1.41-.1-1.45-1.09-.04-1.11.67-1.23,1.54-1.44,4.77-1.12,5.86-2.64,5.49-7.49-.29-3.76-1.77-7.22-2.75-10.81-.34-1.24-.99-1.62-2.23-1.6-5.48.05-10.96.05-16.44,0-1.17,0-2,.2-2.36,1.47-1,3.58-2.49,7.04-2.92,10.77-.52,4.58,1.02,6.73,5.47,7.53,1.08.19,1.81.41,1.67,1.65-.13,1.24-1.13.96-1.88.96-6.53.02-13.06.01-19.59,0-.81,0-1.69.07-1.65-1.19.03-1.07.65-1.34,1.59-1.39,7.58-.41,10.82-5.76,12.94-11.93,4.61-13.43,8.97-26.94,13.36-40.43.6-1.85,1.2-3.31,3.44-3.61,1.68-.23,2.56-1.78,3.77-3.44Zm-5.58,7.84c-3.06,9.64-5.86,18.49-8.71,27.33-.58,1.8-.18,2.49,1.83,2.44,4.54-.12,9.08-.11,13.62,0,1.91.04,2.51-.47,1.89-2.39-2.83-8.84-5.59-17.7-8.64-27.38Z"/>
  <path class="cls-1" d="m762.67,165.19c0,2.45,0,4.9,0,7.35,0,.99-.91,1.91-1.38,1.01-2.36-4.53-5.69-1.85-8.47-1.15-4.07,1.02-8.05,2.21-12.32,2.25-16.86.19-28.01-9.76-29.56-26.61-.42-4.54-.25-9.09.89-13.55,4.32-16.77,20.46-25.3,38.23-20.21,2.24.64,4.46,1.34,6.73,1.87,1.54.36,3.29.98,4.07-1.31.16-.47.64-.66,1.15-.55.81.17.66.85.66,1.4.01,4.78.01,9.57,0,14.35,0,.68.05,1.43-.96,1.53-.83.08-1.34-.31-1.61-1.03-.29-.76-.49-1.56-.78-2.32-2.93-7.61-8.12-12.38-16.53-12.98-8.26-.58-14.81,2.69-18.59,9.94-6.46,12.38-6.29,25.18-.25,37.67,3.38,7,9.38,10.46,17.35,10.04,8.74-.47,14.47-5.03,17.93-12.89.58-1.31.12-4.01,2.44-3.54,2.06.42.77,2.73.98,4.18.22,1.48.05,3.03.05,4.54h-.01Z"/>
  <path class="cls-1" d="m512.73,173.94c-6.06,0-12.13.02-18.19-.03-.82,0-2.11.56-2.35-.76-.26-1.48,1.09-1.07,1.92-1.27,3.69-.88,4.5-3.88,4.58-6.97.19-6.76.11-13.52.11-20.29,0-6.88.08-13.76-.05-20.64-.07-3.89-.75-7.59-5.69-8.19-.73-.09-1.03-.5-.95-1.17.09-.7.62-.9,1.26-.9,6.3,0,12.59,0,18.89,0,.76,0,1.42.14,1.4,1.1-.02.78-.58.86-1.19.93-4.4.5-5.36,3.79-5.39,7.31-.12,12.24-.13,24.49.03,36.73.09,6.71,3.27,10.59,9.14,11.93,6.37,1.46,13.8-1.31,16.6-6.21.35-.6.61-1.26.86-1.91.24-.61.65-1.03,1.29-.9,1.07.21.6,1.03.55,1.66,0,.11-.07.22-.09.34q-1.36,9.22-10.84,9.22c-3.96,0-7.93,0-11.89,0Z"/>
  <g>
    <path class="cls-1" d="m486.97,210.08c0,5.88.03,11.77-.03,17.65-.01,1.23.68,2.99-1.69,3.03-2.43.04-1.7-1.75-1.71-2.96-.06-6.4-.1-12.81.03-19.21.03-1.34-1.18-3.48,1.54-3.84,2.46-.32,4.38-.14,5.41,2.84,1.89,5.49,4.21,10.83,6.36,16.23.24.61.55,1.19,1.46,1.67,0-5.95-.02-11.91.02-17.86,0-1.24-.68-2.96,1.72-2.96,2.43,0,1.68,1.75,1.69,2.97.05,6.64.05,13.28,0,19.91,0,1.27.59,3.09-1.65,3.13-1.82.03-3.84.92-4.88-1.9-2.32-6.31-4.98-12.5-7.5-18.74l-.79.05Z"/>
    <path class="cls-1" d="m673.69,217.78c0-3.49.13-6.99-.05-10.47-.12-2.23.7-2.92,2.79-2.68,1.15.13,2.33.01,3.49.03,8.26.1,12.06,4.42,8.81,11.95-1.98,4.59-1.06,8.01.06,12,.19.68,1,1.65-.28,2-.94.26-2.12.54-2.7-.78-.23-.53-.42-1.08-.6-1.64-.41-1.21-.79-2.43-1.2-3.64-.92-2.77-3.07-3.81-5.76-2.98-1.11.34-1.06,1.08-1.07,1.87-.03,1.86-.03,3.73-.02,5.59,0,1.1-.37,1.71-1.61,1.74-1.34.04-1.88-.48-1.87-1.82.04-3.72.01-7.45.01-11.18Zm3.24-4.9c.92,1.97-1.9,5.83,3.27,5.52,4.47-.27,6.11-1.46,6.17-5.26.06-3.83-1.85-5.29-6.33-5.53-4.91-.26-2.23,3.39-3.1,5.27Z"/>
    <path class="cls-1" d="m566.96,215.75c0,3.25.09,6.51-.03,9.76-.11,2.82-1.84,4.46-4.48,5.08-2.63.61-5.32.61-7.97.04-2.5-.53-4.21-1.99-4.54-4.64-.83-6.61-.2-13.25-.39-19.87-.04-1.38.89-1.39,1.86-1.44,1.51-.09,1.64.81,1.63,2-.02,5.35-.1,10.71.06,16.06.13,4.07,1.45,5.2,5.35,5.19,3.77-.01,5.03-1.07,5.16-4.96.17-5.23.09-10.47.11-15.71,0-1.28-.24-2.63,1.8-2.59,2.11.04,1.66,1.5,1.67,2.7.03,2.79,0,5.59,0,8.38-.08,0-.17,0-.25,0Z"/>
    <path class="cls-1" d="m467.51,218c-.15,2.55-.19,5.11-.47,7.64-.33,3.09-2.28,4.69-5.27,5.13-1.97.29-3.93.28-5.91.05-3.53-.42-5.57-2.42-5.7-5.91-.18-4.76-.18-9.53,0-14.29.12-3.24,1.86-5.26,5.26-5.96,8.28-1.71,11.9,1.09,11.96,9.49,0,1.28,0,2.56,0,3.84.04,0,.09,0,.13,0Zm-14.01-.38h.04c0,1.98-.07,3.96.02,5.93.12,2.96,1.71,4.35,4.7,4.41,2.9.07,5.2-.64,5.49-3.93.38-4.29.39-8.6-.02-12.89-.24-2.46-1.76-3.56-4.27-3.65-4.5-.16-5.85,1.01-5.95,5.58-.03,1.51,0,3.02,0,4.54Z"/>
    <path class="cls-1" d="m640.36,217.69c0-2.09-.06-4.19.01-6.27.17-4.39,1.65-6.09,5.86-6.86,7.8-1.44,11.25,1.3,11.32,9.15.03,3.94-.09,7.9-.29,11.84-.15,2.97-2,4.67-4.82,5.12-1.81.29-3.71.35-5.55.2-4.63-.38-6.36-2.26-6.52-6.89-.07-2.09-.01-4.18-.01-6.27Zm13.93-.05c-.12-2.02-.24-4.11-.35-6.19-.19-3.49-2.5-3.98-5.35-3.96-2.91.02-4.71,1.12-4.74,4.24-.03,3.84-.02,7.67-.03,11.51,0,3.15,1.52,4.65,4.7,4.72,3.12.07,5.26-.85,5.45-4.34.11-1.97.21-3.94.32-5.99Z"/>
    <path class="cls-1" d="m732.49,204.7c2-.28,2.88.56,3.37,2.54,1.71,6.99,3.66,13.93,5.47,20.9.23.87,1.27,2.08-.48,2.52-1.34.34-2.55.13-2.93-1.56-.23-1.02-.74-2-.81-3.02-.21-3.36-2.08-3.88-5.09-3.87-2.64.01-3.42,1.04-4.23,3.28-.69,1.92.18,6.2-3.5,4.99-2.82-.92-.2-3.93.21-5.84,1.27-5.78,3.08-11.44,4.46-17.2.5-2.09,1.4-3.08,3.51-2.75Zm-.03,3.14c-.95,3.67-1.7,6.44-2.37,9.23-.17.71-.64,1.82.46,2.06,1.2.26,2.54.25,3.75.02,1.13-.21.69-1.31.52-2.02-.67-2.79-1.41-5.56-2.37-9.28Z"/>
    <path class="cls-1" d="m525.48,231c-2.11-.02-4.21-.14-6.13-1.11-1.02-.51-2.17-1.03-1.53-2.62.71-1.78,1.78-.96,2.79-.45,1.82.92,3.73,1.31,5.75,1.08,2.04-.24,3.5-1.17,3.93-3.33.44-2.22-.63-3.54-2.58-4.35-2.04-.85-4.14-1.58-6.09-2.61-3.54-1.88-4.57-4.47-3.81-8.48.69-3.63,3.42-4.39,6.45-4.73,2.34-.26,4.65.12,6.94.59.95.19,1.8.52,1.49,1.86-.29,1.24-.92,1.23-2.04,1.08-2.06-.28-4.17-.32-6.26-.28-1.65.03-2.87.82-3.18,2.64-.3,1.81.17,3.27,1.89,4.08,1.68.79,3.43,1.44,5.13,2.18,4.72,2.05,6.27,4.56,5.47,8.84-.77,4.16-2.79,5.54-8.23,5.61Z"/>
    <path class="cls-1" d="m763.08,231c-2.34-.04-4.66-.17-6.77-1.38-1.07-.61-1.5-1.41-.92-2.6.6-1.22,1.45-.84,2.31-.39,1.79.95,3.66,1.47,5.71,1.29,2.15-.19,3.86-.93,4.33-3.29.48-2.39-.72-3.72-2.82-4.54-1.84-.71-3.71-1.39-5.48-2.27-3.74-1.86-4.99-4.58-4.2-8.64.74-3.76,3.62-4.52,6.79-4.81,2.35-.21,4.66.15,6.93.71.78.19,1.59.51,1.24,1.68-.32,1.05-.73,1.44-1.99,1.2-1.81-.35-3.7-.38-5.56-.39-1.83,0-3.54.38-3.98,2.59-.46,2.32.55,3.79,2.71,4.61,1.52.58,3.03,1.2,4.52,1.85,4.58,2,6.08,4.58,5.25,8.98-.73,3.88-2.83,5.28-8.09,5.39Z"/>
    <path class="cls-1" d="m419.15,217.72c0-1.63-.03-3.26,0-4.89.07-3.04.69-5.92,3.73-7.36,3.78-1.8,7.73-1.29,11.62-.25.83.22.86,1.03.61,1.75-.29.83-.74,1.2-1.8,1.16q-10.74-.46-10.74,10.41c0,.58,0,1.17,0,1.75.04,6.52,2.44,8.53,8.94,7.46.34-.06.68-.16,1.01-.26,1.25-.36,2.35-.39,2.66,1.24.3,1.59-1.04,1.73-1.96,1.86-10.23,1.42-14.65-.51-14.11-10.75.04-.7,0-1.4,0-2.1h.04Z"/>
    <path class="cls-1" d="m616.11,218.87c0-2.8-.16-5.61.05-8.39.18-2.4-.79-3.12-2.99-2.82-.69.09-1.4-.04-2.1.02-1.23.11-1.67-.45-1.62-1.63.04-1.03.51-1.42,1.53-1.41,4.55.03,9.1.02,13.65,0,1.04,0,1.79.16,1.8,1.49.01,1.3-.66,1.44-1.73,1.55-5.1.55-5.1.58-5.1,5.89,0,4.9.02,9.8-.02,14.7,0,1.06.44,2.42-1.49,2.51-1.93.09-2-1.05-1.99-2.46.03-3.15.01-6.3,0-9.45Z"/>
    <path class="cls-1" d="m583.72,217.73c0-3.26-.07-6.52.03-9.78.04-1.29-.88-3.29,1.81-3.22,2.43.06,1.57,1.89,1.59,3.06.08,5.71.15,11.42-.02,17.12-.07,2.34.68,3.1,2.95,2.9,1.85-.17,3.72-.02,5.59-.02,1.03,0,1.42.51,1.43,1.51,0,1.05-.46,1.46-1.47,1.45-3.49-.02-6.99-.02-10.48,0-1.66,0-1.41-1.18-1.41-2.19-.01-3.61,0-7.22,0-10.83Z"/>
    <path class="cls-1" d="m708.87,217.76c0,3.61-.03,7.23.02,10.84.02,1.38-.29,2.2-1.92,2.17-1.61-.03-1.55-1.04-1.55-2.12,0-7.34.02-14.69-.02-22.03,0-1.25.25-1.99,1.7-1.96,1.33.03,1.82.55,1.79,1.9-.07,3.73-.02,7.46-.02,11.19Z"/>
  </g>
  <g>
    <path class="cls-1" d="m297.01,205.18c1.04,1.45,1.83,2.98,2.11,4.79.35,2.24-.12,4-1.6,5.9-1.17,1.49-2.63,2.21-4.04,3.17-1.41.97-2.97,1.77-4.29,2.85-4.05,3.34-8.69,2.65-13.19,1.8-3.17-.6-6.28-5.68-5.59-8.3.21-.8.33-1.8,1.61-1.51.15.03.44-.02.49-.11,1.6-3.43,4.53-2.19,6.89-1.62,2.1.51,3.63-.71,5.42-.98.9-.14.63-1.72.29-2.63-.43-1.16-1.31-2.05-2.14-2.96-1.56-1.71-3.62-2.99-4.48-5.29-.12-.33-.37-.47-.71-.47-2.79,0-5.4-1.02-8.13-1.42-3.22-.47-6.51-.68-9.61-2.29-2.1-1.09-4.82-1.68-7.38-.45-.21.1-.69-.36-1.04-.55-.04,3.61-.54,7.02-2.95,9.9-.44.53-.58,1.33-.81,2.02-1.46,4.42-3.6,8.23-8.52,9.56-.47.13-.68.48-.9.86-1.23,2.13-2.95,3.85-5.08,4.95-2.11,1.1-3.3,3.15-5.21,4.39-.18.12-.34.39-.35.6-.09,2.63-.38,5.31.89,7.77,1.17,2.26,2.89,2.7,5.17,1.43.11-.06.23-.16.33-.15,2.72.31,5.51.39,7.86,2.08.49.35.81.96.84,1.59.09,1.74.9,3.2,1.77,4.63.2.32.18.54-.12.77-1.45,1.15-3.22,1.71-4.77,2.57-1.27.71-2.48,1.25-3.64.87-3.17-1.04-6.47-.9-9.69-1.37-.69-.1-1.03-.6-1.55-.9-.5-.29-.76-1.13-1.72-.24-.67.62-1.69-.34-1.55-1.24.51-3.25-1.43-5.45-3.24-7.57-2.81-3.3-4.78-7.12-7.14-10.7-.98-1.49-.47-3.59.88-4.74,4.34-3.69,7.27-8.44,9.79-13.44.73-1.45.44-4.86-1.34-6.17-1.79-1.31-3.21-3.03-4.53-4.81-.57-.77-.93-.9-1.7-.21-2.43,2.14-5.3,3.5-8.34,4.54-1.62.55-3.24,1.58-4.12,2.83-3.67,5.22-9.14,7.63-14.64,10.06-.26.12-.59.02-.78.37-1.14,2.06-3.07,3.33-4.91,4.63-1.67,1.18-2.63,2.68-2.77,4.72-.09,1.38-.61,2.49-2.04,2.97-.17.06-.36.17-.45.31-1.38,2.27-3.3,4.22-4.15,6.8-.22.67-.72,1.89,1.01,1.27.65-.23,1.48-.16,1.02.97-.16.39-.12.45.28.58,1.93.62,3.77,1.36,3.05,4.01,1.4,1.17.79,2.77.92,4.23.07.75-.21,1.06-.85,1.39-2.32,1.18-4.67,1.4-7.11.47-1.44-.55-2.88-1.12-4.49-.75-.13.03-.37-.07-.44-.18-.82-1.21-2-1.08-3.27-1.15-1.96-.11-3.35-2.87-2.28-4.73,1.84-3.2,2.42-6.7,2.99-10.23.31-1.93-.19-3.88.24-5.83.72-3.26,2.11-5.8,5.19-7.58,2.11-1.22,3.83-3.16,5.21-5.34,1.07-1.68,2.45-3.16,3.43-4.92.21-.37.52-.72.61-1.11,1.55-6.87,4.54-13.2,7.28-19.62.61-1.44.76-2.94,1.01-4.45.49-3.01,2.03-5.62,3.34-8.32.53-1.09,1.29-2.1,1.32-3.38.05-.07.1-.14.14-.21-.08.04-.16.09-.24.13-3.55.21-7.06.75-10.59,1.09-4.73.46-9.36-.56-13.81-2.22-1.32-.49-2.57-1.15-3.89-1.65-8.86-3.33-11.31-15.51-7.7-22.23,3.93-7.34,9.83-12.17,18.14-13.61,2.21-.38,4.04-1.72,6.24-2,2.59-.34,5.16-.74,7.74-1.12,1.24-.18,2,.9,3.12,1.16,4.5,1.03,6.75,5.19,10.17,7.74.33.24.59,1.11,1.21,1.49.22.13-1.22,2.38-1.48,2.26-1.53-.7-2.33.43-3.5,1.04-1.91,1-4.19.74-6.31.26-2.19-.49-4.16-1.53-5.97-2.78-3.24-2.26-6.99-2.84-10.71-3.53-1.22-.23-2.47.17-3.57.69-5.51,2.6-9.54,6.67-11.62,12.43-1.56,4.31.15,9.11,3.97,11.65,2.38,1.58,4.96,2.64,7.92,2.58,2.63-.05,5.2.91,7.87.42,3.25-.6,6.19-1.93,8.96-3.67,9.35-5.87,18.79-11.61,28.97-15.96,4.49-1.92,9.38-2.55,14.15-3.41,7.64-1.39,15.28-.59,22.93.16,5.91.57,11.83,1.51,17.79.62,1.61-.24,3.03-.59,4.03-2.32.49-.84,1.45-2,2.74-2.33.16-.04.44-.2.43-.28-.45-3.36,2.69-4.63,4.04-6.93.1-.18.38-.26.57-.38.15.67.22,1.7,1.23.94,1.06-.8,2.02-.55,3.05-.21.73.25,1.32.36,1.23-.74.86-.5,2.03,1.17,2.41.03.28-.83-1.55-.37-2.03-1.2,0-.08,0-.17-.02-.25,1.1-.28,2.33.53,3.35-.42l-.04.02c.32.25.63.03.95,0,2.14-.85-.57-1.19-.2-1.85.77-.77,1.1-1.49.02-2.34-.45-.36-.67-1.01-.98-1.54-1.28-2.2-.88-3.73,1.33-5.07.42-.25.84-.5,1.46-.86-1.48-.52-2.1-2.27-3.99-1.95q1.19-.77,2.46-.2c3.29,1.47,4.69.72,5.57-2.73.62-2.43.64-5.15,2.65-7.01,1.79-1.66,3.72-3.19,5.65-4.69.28-.22.93.03,1.41.09,1,.13,2.04.24,2.59-.84,2.54-4.98,6.53-7.04,12.05-6.05-.1.38.18.34.4.35.05,0,.1-.06.15-.1-.19-.07-.39-.15-.58-.22-.55-.85-.15-1.08.67-1.03.13.19.3.34.5.13.04-.05-.1-.27-.15-.4.14-1.16.74-.23.97-.14,1.33.56,2.54.68,3.81-.23.98-.7,2.22-.51,3.38-.64,1.39-.15,2.63,1.17,4.21.05.79-.56,1.9.57,2.46,1.48,1.2,1.94,2.77,2.71,5.1,2.27,2.28-.43,3.6,1.11,4.62,2.92.51.91.9,1.78,2.34,1.19.97-.39,3.35,2.34,3.51,3.8.4,3.58.4,3.59-3.2,4.53-.72.19-1.41.37-1.97.92.44.73,1.11,1.17,1.76,1.6,1.45.97,2.59,2.12,3.33,3.78,1.06,2.4,3.19,3.85,5.41,5.07,2.27,1.25,4.34,2.71,6.23,4.49,1.82,1.72,2.07,2.76.86,5-.41.75-.86,1.49-1.24,2.25-.42.84-.7,1.71-.16,2.62.1.15.2.31.3.46-.27.4-.8.79-.59,1.27.28.61.98.3,1.48.3,2.71-.04,2.71-.06,4.34.66-1.39.28-2.43-.23-3.5-.32-.9-.07-2.24-.45-2.5.49-.37,1.3-2.1,2.23-.91,4.1.71,1.12.43,2.78-.07,4.13-.79,2.13-1.37,4.4-3.86,5.39-1.51.6-2.63,0-3.55-.96-.65-.69-1.11-1.46-2.38-1.32,1.27,1.5,1.21,2.96,0,4.35-.48.55-.22,1.18-.24,1.76-.03,1.07-.24,2.02-1.37,2.93-.06-1.26-.1-2.25-.15-3.36-.66.35-.58.94-.68,1.4-.59,2.68-1.43,5.23-3.68,7.01-.75.59-.37.82.21,1.14.53.29,1.02.65,1.61,1.03-1,.87-1.95.12-2.85.18-.08-.06-.2-.18-.24-.16-.2.12-.12.25.03.36,3.6,5.7,2.22,10.82-1.81,15.63-.12.14-.26.25-.47.46-.06-.39-.12-.74-.18-1.09.54-.24.44-.59.2-1.01-.28.31-.28.65-.21,1-.91.88-.84,2.42-2.08,3.07-.06-.05-.11-.11-.17-.16.07-1.09.88-1.87,1.17-2.86.15-.49.93-.99.08-1.55,1.32-2.62,2.35-5.27.79-8.15-.05,2.78.2,5.61-1.33,8.15-.95.72-.78,1.87-1.04,2.83-.74,2.75-1.5,5.47-3.3,7.81.97-3.7.93-7.32-.45-11.35-1.09,2.94.91,5.6-.56,8.08-.68-.15-.33-.84-.71-1.22-.89,3.03-2.75,5.62-3.45,8.69-.59.05-.53-.35-.47-.71.19-1.1.41-2.2.59-3.14-.55,1.1-1.04,2.4-1.18,3.8-1.24.2-.3-1.17-1.01-1.36-.53,2.35-2.01,4.18-3.3,6.14-.14-1.66,1.44-2.95.8-4.92-.46,1.72-1.79,2.63-2.53,3.97-.29.52-.61,1.86-1.77.76-.24.27-.53.51-.72.81-.81,1.29-1.18,2.79-.99,4.23.24,1.78.18,3.41-.72,5.06-1.07-.93-.94-2.52-1.88-3.53-1.45,4.7-1.12,9.57-2.09,14.26-.34,1.65-.38,3.32-.15,4.95.48,3.47,0,6.84-.59,10.23-.15.84-.23,1.71-.16,2.55.19,2.29.65,2.59,2.83,2.15.46-.09.96-.45,1.42-.12,1.97,1.43,5.15.33,6.46,3.23.58,1.28,1.25,2.52,2.53,3.48,1.35,1.01.26,4.02-1.53,4.7-.39.15-1.01.09-1.19.35-2.04,3.01-4.6,1.66-7.11.94-.27-.08-.59-.02-.89,0-3.4.32-6.73.2-9.79-1.6-.62-.37-.91-.87-.93-1.65-.06-2.18-.93-4.17-1.8-6.12-1.58-3.53-2.54-7.14-1.88-11.03.09-.56-.07-1.09-.27-1.61-1.81-4.87-2.46-9.99-3.01-15.11-.3-2.8-2.05-4.8-3.31-7.09-.35-.63-.58.76-1.11.3.05-.65.11-1.3-.24-2.07-.69.88-.77,1.55.14,2.17Zm49.34-31.92c1.03-1.87,1.46-3.81.89-6.27-.33,2.34-.61,4.31-.89,6.27Zm-69.76-35.75c.4.24.77.19,1.16-.05-.41-.21-.78-.26-1.16.05Zm47.56-45.84s-.08.06-.12.08c.03.04.06.1.1.1.04,0,.08-.05.12-.08-.03-.04-.07-.07-.1-.11Z"/>
    <path class="cls-1" d="m292.29,125.5c-.37.66,2.34,1,.2,1.85.06-.28-.07-.44-.34-.42-.27.01-.59.02-.61.42,0,0,.04-.02.04-.02-1.13.05-2.31-.36-3.35.42,0,.08.01.17.02.25-.61-.59-1.11-1.19-.15-1.92.06-.05-.11-.41-.17-.62l-.03.02c.73.1,1.51-.04,2.18.39,0,.1,0,.2,0,.3-.34.16-.83-.3-1.13.32.6.08,1.22.65,1.63-.28.37,0,.76.06.97-.37.25-.11.5-.22.74-.34Z"/>
    <path class="cls-1" d="m342.35,176.33c1.53-2.54,1.28-5.37,1.33-8.15,1.56,2.89.52,5.53-.79,8.15-.18,0-.36,0-.54,0Z"/>
    <path class="cls-1" d="m287.86,129.17c.09,1.09-.5.98-1.23.74-1.03-.35-1.99-.59-3.05.21-1.01.76-1.08-.27-1.23-.94,0,0-.02.01-.02.01,1.04.24,1.89-.45,3.07-.44-.75-.49-1.37-.27-1.94-.36,0-.18,0-.36,0-.54.47-.3,1.04.34,1.49-.14l-.03-.02c-.01.65.44.4.77.39,0,0-.03-.02-.03-.02.06.52.41.47.77.39,0,0-.03-.02-.03-.02.08.48.41.46.77.39,0,0-.04-.02-.04-.02.09.46.41.48.77.39l-.03-.02Z"/>
    <path class="cls-1" d="m331.78,191.11c.14-1.4.63-2.69,1.18-3.8-.18.94-.39,2.04-.59,3.14-.06.36-.13.76.47.71-.42,1.2-.74.48-1.06-.06Z"/>
    <path class="cls-1" d="m368.37,137.25c-1.13-.51-2.27-1.01-3.4-1.52,1.35.02,2.67.11,3.4,1.52Z"/>
    <path class="cls-1" d="m365.24,132.45c-.1-.15-.2-.31-.3-.46,1.12-.29,2.25-.58,3.86-1-1.22,1.39-2.6.86-3.55,1.46Z"/>
    <path class="cls-1" d="m284.94,127.71c-.46.48-1.02-.16-1.49.14l-.92.13c-.09-.11-.18-.23-.26-.34.92-.97,1.81-.8,2.67.08Z"/>
    <path class="cls-1" d="m283.45,128.39c.58.09,1.19-.13,1.94.36-1.18-.01-2.03.68-3.07.44.15-.58.73-.56,1.12-.8Z"/>
    <path class="cls-1" d="m291.55,125.84c-.21.43-.6.36-.97.37-.17-.01-.33-.02-.5-.03,0-.1,0-.2,0-.3.49-.01.98-.02,1.47-.03Z"/>
    <path class="cls-1" d="m287.92,125.46c-.14-.05-.29-.11-.43-.16.13.06.27.12.4.18,0,0,.03-.02.03-.02Z"/>
    <path class="cls-1" d="m287.89,129.19c-.37.09-.68.07-.77-.39.45-.25.72-.15.77.39Z"/>
    <path class="cls-1" d="m287.15,128.83c-.36.07-.69.09-.77-.39.45-.25.72-.15.77.39Z"/>
    <path class="cls-1" d="m286.41,128.46c-.36.08-.71.13-.77-.39.45-.25.72-.15.77.39Z"/>
    <path class="cls-1" d="m285.68,128.09c-.32,0-.78.26-.77-.39.39-.13.75-.21.77.39Z"/>
    <path class="cls-1" d="m341.81,180.9c-.11.15-.22.33-.39.07-.01-.02.14-.15.22-.23.06.05.11.11.17.16Z"/>
    <path class="cls-1" d="m282.53,127.98c-.15.03-.3.05-.45.08.06-.14.12-.28.18-.42.09.11.18.23.26.34Z"/>
    <path class="cls-1" d="m346.35,173.26c.28-1.97.56-3.93.89-6.27.57,2.46.15,4.41-.89,6.27Z"/>
    <path class="cls-1" d="m297.01,205.18c-.91-.62-.84-1.29-.14-2.17.35.77.29,1.42.24,2.07,0,0-.1.1-.1.1Z"/>
    <path class="cls-1" d="m288.23,127.76c1.04-.78,2.22-.37,3.35-.42-1.02.95-2.25.14-3.35.42Z"/>
    <path class="cls-1" d="m276.59,137.51c.38-.31.75-.25,1.16-.05-.39.24-.75.28-1.16.05Z"/>
    <path class="cls-1" d="m343.89,177.83c-.07-.35-.07-.69.21-1,.24.41.34.77-.2,1.01,0,0,0,0,0,0Z"/>
    <path class="cls-1" d="m291.54,127.35c.02-.4.33-.41.61-.42.27-.01.4.14.34.42-.32.03-.63.25-.95,0Z"/>
    <path class="cls-1" d="m322.49,92.35c.19.07.39.15.58.22-.05.03-.1.1-.15.1-.22,0-.5.03-.4-.35,0,0-.03.03-.03.03Z"/>
    <path class="cls-1" d="m324.15,91.68s.07.07.1.11c-.04.03-.09.08-.12.08-.04,0-.07-.07-.1-.1.04-.03.08-.06.12-.08Z"/>
    <path class="cls-1" d="m323.51,91.03c.05.14.19.36.15.4-.2.21-.37.07-.5-.13.12-.09.23-.19.35-.28Z"/>
    <path class="cls-1" d="m190.5,170.03c.08-.04.16-.09.24-.13-.05.07-.1.14-.14.21,0,0-.09-.09-.09-.09Z"/>
    <path class="cls-1" d="m346.35,162.84c-.15-.11-.23-.24-.03-.36.03-.02.16.1.24.16-.07.07-.14.14-.21.21Z"/>
    <path class="cls-1" d="m290.08,126.17c.17.01.33.02.5.03-.41.93-1.03.36-1.63.28.3-.62.79-.15,1.13-.32Z"/>
  </g>
</svg>